<svg width="595" height="842" viewBox="0 0 595 842" fill="none" xmlns="http://www.w3.org/2000/svg">
<g clip-path="url(#clip0_3_32)">
<rect width="595" height="842" fill="white"/>
<g opacity="0.3">
<mask id="mask0_3_32" style="mask-type:luminance" maskUnits="userSpaceOnUse" x="298" y="261" width="581" height="581">
<path d="M298 261.714H878.286V842H298V261.714Z" fill="white"/>
</mask>
<g mask="url(#mask0_3_32)">
<path d="M867.355 526.018L613.988 272.67C610.518 269.198 606.397 266.442 601.861 264.563C597.325 262.683 592.463 261.716 587.553 261.716C582.643 261.716 577.781 262.683 573.245 264.563C568.709 266.442 564.588 269.198 561.117 272.67L508.524 325.289L575.251 392.015C583.096 389.351 591.53 388.935 599.599 390.815C607.668 392.694 615.05 396.794 620.91 402.65C626.803 408.549 630.916 415.987 632.78 424.114C634.644 432.241 634.183 440.729 631.45 448.606L695.783 512.92C703.662 510.184 712.153 509.723 720.283 511.59C728.412 513.458 735.85 517.578 741.745 523.479C745.875 527.608 749.15 532.509 751.385 537.904C753.62 543.299 754.77 549.08 754.77 554.92C754.77 560.759 753.62 566.541 751.385 571.935C749.15 577.33 745.875 582.231 741.745 586.36C733.397 594.699 722.08 599.384 710.28 599.384C698.48 599.384 687.162 594.699 678.814 586.36C672.612 580.148 668.387 572.241 666.67 563.633C664.953 555.025 665.821 546.101 669.164 537.985L609.17 478.01V635.871C615.502 638.999 620.998 643.591 625.203 649.266C629.407 654.941 632.199 661.536 633.347 668.505C634.495 675.474 633.966 682.616 631.805 689.34C629.643 696.064 625.91 702.176 620.916 707.17C616.788 711.299 611.886 714.575 606.492 716.81C601.097 719.045 595.315 720.195 589.476 720.195C583.637 720.195 577.855 719.045 572.46 716.81C567.066 714.575 562.164 711.299 558.036 707.17C553.905 703.041 550.629 698.14 548.394 692.744C546.158 687.349 545.008 681.567 545.008 675.727C545.008 669.887 546.158 664.104 548.394 658.709C550.629 653.314 553.905 648.412 558.036 644.283C562.196 640.114 567.141 636.811 572.586 634.564V475.25C567.164 473.017 562.236 469.734 558.086 465.591C553.937 461.447 550.647 456.525 548.405 451.106C546.163 445.687 545.014 439.879 545.024 434.015C545.034 428.151 546.202 422.347 548.462 416.935L482.67 351.131L308.925 524.831C301.924 531.846 297.992 541.352 297.992 551.263C297.992 561.174 301.924 570.68 308.925 577.695L562.305 831.075C569.319 838.074 578.824 842.005 588.734 842.005C598.643 842.005 608.148 838.074 615.163 831.075L867.355 578.883C874.356 571.868 878.288 562.361 878.288 552.45C878.288 542.539 874.356 533.033 867.355 526.018Z" fill="#F03C2E"/>
</g>
</g>
<path d="M229.121 290.929L225.826 300H224.479L228.273 290.047H229.142L229.121 290.929ZM231.883 300L228.581 290.929L228.561 290.047H229.429L233.236 300H231.883ZM231.712 296.315V297.396H226.12V296.315H231.712ZM235.643 294.183V300H234.378V292.604H235.574L235.643 294.183ZM235.342 296.021L234.815 296.001C234.82 295.495 234.895 295.028 235.041 294.6C235.187 294.167 235.392 293.791 235.656 293.472C235.921 293.153 236.235 292.907 236.6 292.733C236.969 292.556 237.377 292.467 237.823 292.467C238.188 292.467 238.516 292.517 238.808 292.617C239.099 292.713 239.348 292.868 239.553 293.082C239.762 293.296 239.922 293.574 240.031 293.916C240.141 294.253 240.195 294.666 240.195 295.153V300H238.924V295.14C238.924 294.752 238.867 294.442 238.753 294.21C238.639 293.973 238.473 293.802 238.254 293.697C238.035 293.588 237.766 293.533 237.447 293.533C237.133 293.533 236.846 293.599 236.586 293.731C236.331 293.864 236.11 294.046 235.923 294.278C235.741 294.511 235.597 294.777 235.492 295.078C235.392 295.374 235.342 295.689 235.342 296.021ZM253.443 294.709V295.338C253.443 296.085 253.35 296.755 253.163 297.348C252.976 297.94 252.707 298.444 252.356 298.858C252.006 299.273 251.584 299.59 251.092 299.809C250.604 300.027 250.057 300.137 249.451 300.137C248.863 300.137 248.323 300.027 247.831 299.809C247.343 299.59 246.92 299.273 246.56 298.858C246.204 298.444 245.928 297.94 245.732 297.348C245.536 296.755 245.438 296.085 245.438 295.338V294.709C245.438 293.962 245.534 293.294 245.726 292.706C245.922 292.114 246.197 291.61 246.553 291.195C246.908 290.776 247.33 290.457 247.817 290.238C248.31 290.02 248.85 289.91 249.438 289.91C250.044 289.91 250.59 290.02 251.078 290.238C251.57 290.457 251.992 290.776 252.343 291.195C252.698 291.61 252.969 292.114 253.156 292.706C253.348 293.294 253.443 293.962 253.443 294.709ZM252.138 295.338V294.695C252.138 294.103 252.076 293.579 251.953 293.123C251.835 292.667 251.659 292.285 251.427 291.975C251.194 291.665 250.91 291.43 250.572 291.271C250.24 291.111 249.861 291.031 249.438 291.031C249.027 291.031 248.656 291.111 248.323 291.271C247.995 291.43 247.713 291.665 247.476 291.975C247.243 292.285 247.063 292.667 246.936 293.123C246.808 293.579 246.744 294.103 246.744 294.695V295.338C246.744 295.935 246.808 296.464 246.936 296.924C247.063 297.38 247.245 297.765 247.482 298.079C247.724 298.389 248.009 298.624 248.337 298.783C248.67 298.943 249.041 299.022 249.451 299.022C249.88 299.022 250.26 298.943 250.593 298.783C250.925 298.624 251.206 298.389 251.434 298.079C251.666 297.765 251.841 297.38 251.96 296.924C252.078 296.464 252.138 295.935 252.138 295.338ZM256.492 294.025V302.844H255.221V292.604H256.383L256.492 294.025ZM261.476 296.24V296.384C261.476 296.922 261.412 297.421 261.284 297.881C261.157 298.337 260.97 298.733 260.724 299.07C260.482 299.408 260.184 299.67 259.828 299.856C259.473 300.043 259.065 300.137 258.604 300.137C258.135 300.137 257.72 300.059 257.36 299.904C257 299.749 256.695 299.524 256.444 299.228C256.194 298.931 255.993 298.576 255.843 298.161C255.697 297.746 255.597 297.279 255.542 296.76V295.994C255.597 295.447 255.699 294.957 255.85 294.524C256 294.091 256.198 293.722 256.444 293.417C256.695 293.107 256.998 292.872 257.354 292.713C257.709 292.549 258.119 292.467 258.584 292.467C259.049 292.467 259.461 292.558 259.821 292.74C260.181 292.918 260.484 293.173 260.73 293.506C260.977 293.839 261.161 294.237 261.284 294.702C261.412 295.162 261.476 295.675 261.476 296.24ZM260.204 296.384V296.24C260.204 295.871 260.165 295.525 260.088 295.201C260.01 294.873 259.89 294.586 259.726 294.34C259.566 294.089 259.361 293.893 259.11 293.752C258.86 293.606 258.561 293.533 258.215 293.533C257.896 293.533 257.618 293.588 257.381 293.697C257.148 293.807 256.95 293.955 256.786 294.142C256.622 294.324 256.488 294.534 256.383 294.771C256.283 295.003 256.207 295.244 256.157 295.495V297.266C256.248 297.585 256.376 297.885 256.54 298.168C256.704 298.446 256.923 298.672 257.196 298.845C257.47 299.013 257.814 299.098 258.229 299.098C258.57 299.098 258.864 299.027 259.11 298.886C259.361 298.74 259.566 298.542 259.726 298.291C259.89 298.04 260.01 297.753 260.088 297.43C260.165 297.102 260.204 296.753 260.204 296.384ZM266.158 300.137C265.643 300.137 265.176 300.05 264.757 299.877C264.342 299.699 263.984 299.451 263.684 299.132C263.387 298.813 263.16 298.435 263 297.997C262.84 297.56 262.761 297.081 262.761 296.562V296.274C262.761 295.673 262.85 295.137 263.027 294.668C263.205 294.194 263.447 293.793 263.752 293.465C264.057 293.137 264.404 292.888 264.791 292.72C265.178 292.551 265.579 292.467 265.994 292.467C266.523 292.467 266.979 292.558 267.361 292.74C267.749 292.923 268.065 293.178 268.312 293.506C268.558 293.829 268.74 294.212 268.858 294.654C268.977 295.092 269.036 295.57 269.036 296.09V296.657H263.513V295.625H267.771V295.529C267.753 295.201 267.685 294.882 267.566 294.572C267.452 294.262 267.27 294.007 267.02 293.807C266.769 293.606 266.427 293.506 265.994 293.506C265.707 293.506 265.443 293.567 265.201 293.69C264.96 293.809 264.752 293.987 264.579 294.224C264.406 294.461 264.271 294.75 264.176 295.092C264.08 295.434 264.032 295.828 264.032 296.274V296.562C264.032 296.912 264.08 297.243 264.176 297.553C264.276 297.858 264.42 298.127 264.606 298.359C264.798 298.592 265.028 298.774 265.297 298.906C265.57 299.038 265.88 299.104 266.227 299.104C266.673 299.104 267.051 299.013 267.361 298.831C267.671 298.649 267.942 298.405 268.175 298.1L268.94 298.708C268.781 298.95 268.578 299.18 268.332 299.398C268.086 299.617 267.783 299.795 267.423 299.932C267.067 300.068 266.646 300.137 266.158 300.137ZM271.777 294.183V300H270.513V292.604H271.709L271.777 294.183ZM271.477 296.021L270.95 296.001C270.955 295.495 271.03 295.028 271.176 294.6C271.322 294.167 271.527 293.791 271.791 293.472C272.055 293.153 272.37 292.907 272.734 292.733C273.104 292.556 273.511 292.467 273.958 292.467C274.323 292.467 274.651 292.517 274.942 292.617C275.234 292.713 275.482 292.868 275.688 293.082C275.897 293.296 276.057 293.574 276.166 293.916C276.275 294.253 276.33 294.666 276.33 295.153V300H275.059V295.14C275.059 294.752 275.002 294.442 274.888 294.21C274.774 293.973 274.607 293.802 274.389 293.697C274.17 293.588 273.901 293.533 273.582 293.533C273.268 293.533 272.98 293.599 272.721 293.731C272.465 293.864 272.244 294.046 272.058 294.278C271.875 294.511 271.732 294.777 271.627 295.078C271.527 295.374 271.477 295.689 271.477 296.021ZM287.22 297.484C287.22 297.252 287.183 297.047 287.11 296.869C287.042 296.687 286.919 296.523 286.741 296.377C286.568 296.231 286.326 296.092 286.017 295.96C285.711 295.828 285.324 295.693 284.854 295.557C284.362 295.411 283.918 295.249 283.521 295.071C283.125 294.889 282.785 294.682 282.503 294.449C282.22 294.217 282.004 293.95 281.854 293.649C281.703 293.349 281.628 293.005 281.628 292.617C281.628 292.23 281.708 291.872 281.867 291.544C282.027 291.216 282.255 290.931 282.551 290.689C282.852 290.443 283.209 290.252 283.624 290.115C284.039 289.979 284.501 289.91 285.012 289.91C285.759 289.91 286.393 290.054 286.912 290.341C287.436 290.623 287.835 290.995 288.108 291.455C288.382 291.911 288.519 292.398 288.519 292.918H287.206C287.206 292.544 287.126 292.214 286.967 291.927C286.807 291.635 286.566 291.407 286.242 291.243C285.919 291.075 285.508 290.99 285.012 290.99C284.542 290.99 284.155 291.061 283.85 291.202C283.544 291.343 283.316 291.535 283.166 291.776C283.02 292.018 282.947 292.294 282.947 292.604C282.947 292.813 282.991 293.005 283.077 293.178C283.168 293.346 283.307 293.504 283.494 293.649C283.686 293.795 283.927 293.93 284.219 294.053C284.515 294.176 284.868 294.294 285.278 294.408C285.843 294.568 286.331 294.745 286.741 294.941C287.151 295.137 287.489 295.358 287.753 295.604C288.022 295.846 288.22 296.122 288.348 296.432C288.48 296.737 288.546 297.083 288.546 297.471C288.546 297.876 288.464 298.243 288.3 298.571C288.136 298.899 287.901 299.18 287.596 299.412C287.29 299.645 286.924 299.825 286.495 299.952C286.071 300.075 285.597 300.137 285.073 300.137C284.613 300.137 284.16 300.073 283.713 299.945C283.271 299.818 282.868 299.626 282.503 299.371C282.143 299.116 281.854 298.801 281.635 298.428C281.421 298.049 281.313 297.612 281.313 297.115H282.626C282.626 297.457 282.692 297.751 282.824 297.997C282.956 298.239 283.136 298.439 283.364 298.599C283.597 298.758 283.859 298.877 284.15 298.954C284.447 299.027 284.754 299.063 285.073 299.063C285.534 299.063 285.923 299 286.242 298.872C286.561 298.744 286.803 298.562 286.967 298.325C287.135 298.088 287.22 297.808 287.22 297.484ZM289.701 296.384V296.227C289.701 295.693 289.779 295.199 289.934 294.743C290.089 294.283 290.312 293.884 290.604 293.547C290.895 293.205 291.248 292.941 291.663 292.754C292.078 292.562 292.543 292.467 293.058 292.467C293.577 292.467 294.044 292.562 294.459 292.754C294.878 292.941 295.234 293.205 295.525 293.547C295.822 293.884 296.047 294.283 296.202 294.743C296.357 295.199 296.435 295.693 296.435 296.227V296.384C296.435 296.917 296.357 297.411 296.202 297.867C296.047 298.323 295.822 298.722 295.525 299.063C295.234 299.401 294.881 299.665 294.466 299.856C294.056 300.043 293.591 300.137 293.071 300.137C292.552 300.137 292.085 300.043 291.67 299.856C291.255 299.665 290.9 299.401 290.604 299.063C290.312 298.722 290.089 298.323 289.934 297.867C289.779 297.411 289.701 296.917 289.701 296.384ZM290.966 296.227V296.384C290.966 296.753 291.009 297.102 291.096 297.43C291.182 297.753 291.312 298.04 291.485 298.291C291.663 298.542 291.884 298.74 292.148 298.886C292.413 299.027 292.72 299.098 293.071 299.098C293.418 299.098 293.721 299.027 293.98 298.886C294.245 298.74 294.464 298.542 294.637 298.291C294.81 298.04 294.94 297.753 295.026 297.43C295.118 297.102 295.163 296.753 295.163 296.384V296.227C295.163 295.862 295.118 295.518 295.026 295.194C294.94 294.866 294.808 294.577 294.63 294.326C294.457 294.071 294.238 293.87 293.974 293.725C293.714 293.579 293.409 293.506 293.058 293.506C292.711 293.506 292.406 293.579 292.142 293.725C291.882 293.87 291.663 294.071 291.485 294.326C291.312 294.577 291.182 294.866 291.096 295.194C291.009 295.518 290.966 295.862 290.966 296.227ZM302.546 298.291V292.604H303.817V300H302.607L302.546 298.291ZM302.785 296.732L303.312 296.719C303.312 297.211 303.259 297.667 303.154 298.086C303.054 298.501 302.89 298.861 302.662 299.166C302.434 299.471 302.136 299.711 301.767 299.884C301.397 300.052 300.949 300.137 300.42 300.137C300.06 300.137 299.729 300.084 299.429 299.979C299.132 299.875 298.877 299.713 298.663 299.494C298.449 299.275 298.283 298.991 298.164 298.64C298.05 298.289 297.993 297.867 297.993 297.375V292.604H299.258V297.389C299.258 297.721 299.294 297.997 299.367 298.216C299.445 298.43 299.547 298.601 299.675 298.729C299.807 298.852 299.953 298.938 300.112 298.988C300.276 299.038 300.445 299.063 300.618 299.063C301.156 299.063 301.582 298.961 301.896 298.756C302.211 298.546 302.437 298.266 302.573 297.915C302.715 297.56 302.785 297.165 302.785 296.732ZM307.01 293.766V300H305.745V292.604H306.976L307.01 293.766ZM309.32 292.562L309.313 293.738C309.209 293.715 309.108 293.702 309.013 293.697C308.922 293.688 308.817 293.684 308.698 293.684C308.407 293.684 308.149 293.729 307.926 293.82C307.702 293.911 307.513 294.039 307.358 294.203C307.203 294.367 307.08 294.563 306.989 294.791C306.903 295.014 306.846 295.26 306.818 295.529L306.463 295.734C306.463 295.288 306.506 294.868 306.593 294.477C306.684 294.085 306.823 293.738 307.01 293.438C307.197 293.132 307.434 292.895 307.721 292.727C308.012 292.553 308.359 292.467 308.76 292.467C308.851 292.467 308.956 292.478 309.074 292.501C309.193 292.519 309.275 292.54 309.32 292.562ZM313.312 299.098C313.613 299.098 313.891 299.036 314.146 298.913C314.402 298.79 314.611 298.621 314.775 298.407C314.939 298.188 315.033 297.94 315.056 297.662H316.259C316.236 298.1 316.088 298.507 315.814 298.886C315.546 299.259 315.192 299.562 314.755 299.795C314.317 300.023 313.837 300.137 313.312 300.137C312.757 300.137 312.271 300.039 311.856 299.843C311.446 299.647 311.104 299.378 310.831 299.036C310.562 298.694 310.359 298.302 310.223 297.86C310.09 297.414 310.024 296.942 310.024 296.445V296.158C310.024 295.661 310.09 295.192 310.223 294.75C310.359 294.303 310.562 293.909 310.831 293.567C311.104 293.226 311.446 292.957 311.856 292.761C312.271 292.565 312.757 292.467 313.312 292.467C313.891 292.467 314.397 292.585 314.83 292.822C315.263 293.055 315.603 293.374 315.849 293.779C316.099 294.18 316.236 294.636 316.259 295.146H315.056C315.033 294.841 314.946 294.565 314.796 294.319C314.65 294.073 314.45 293.877 314.194 293.731C313.944 293.581 313.65 293.506 313.312 293.506C312.925 293.506 312.599 293.583 312.335 293.738C312.075 293.889 311.868 294.094 311.713 294.354C311.562 294.609 311.453 294.894 311.385 295.208C311.321 295.518 311.289 295.835 311.289 296.158V296.445C311.289 296.769 311.321 297.088 311.385 297.402C311.449 297.717 311.556 298.002 311.706 298.257C311.861 298.512 312.068 298.717 312.328 298.872C312.592 299.022 312.921 299.098 313.312 299.098ZM320.75 300.137C320.235 300.137 319.768 300.05 319.349 299.877C318.934 299.699 318.576 299.451 318.275 299.132C317.979 298.813 317.751 298.435 317.592 297.997C317.432 297.56 317.353 297.081 317.353 296.562V296.274C317.353 295.673 317.441 295.137 317.619 294.668C317.797 294.194 318.038 293.793 318.344 293.465C318.649 293.137 318.995 292.888 319.383 292.72C319.77 292.551 320.171 292.467 320.586 292.467C321.115 292.467 321.57 292.558 321.953 292.74C322.34 292.923 322.657 293.178 322.903 293.506C323.149 293.829 323.332 294.212 323.45 294.654C323.569 295.092 323.628 295.57 323.628 296.09V296.657H318.104V295.625H322.363V295.529C322.345 295.201 322.277 294.882 322.158 294.572C322.044 294.262 321.862 294.007 321.611 293.807C321.361 293.606 321.019 293.506 320.586 293.506C320.299 293.506 320.035 293.567 319.793 293.69C319.551 293.809 319.344 293.987 319.171 294.224C318.998 294.461 318.863 294.75 318.768 295.092C318.672 295.434 318.624 295.828 318.624 296.274V296.562C318.624 296.912 318.672 297.243 318.768 297.553C318.868 297.858 319.011 298.127 319.198 298.359C319.39 298.592 319.62 298.774 319.889 298.906C320.162 299.038 320.472 299.104 320.818 299.104C321.265 299.104 321.643 299.013 321.953 298.831C322.263 298.649 322.534 298.405 322.767 298.1L323.532 298.708C323.373 298.95 323.17 299.18 322.924 299.398C322.678 299.617 322.375 299.795 322.015 299.932C321.659 300.068 321.238 300.137 320.75 300.137ZM332.439 296.097H329.78V295.023H332.439C332.954 295.023 333.371 294.941 333.69 294.777C334.009 294.613 334.242 294.385 334.388 294.094C334.538 293.802 334.613 293.469 334.613 293.096C334.613 292.754 334.538 292.433 334.388 292.132C334.242 291.831 334.009 291.59 333.69 291.407C333.371 291.22 332.954 291.127 332.439 291.127H330.088V300H328.769V290.047H332.439C333.191 290.047 333.827 290.177 334.347 290.437C334.866 290.696 335.26 291.056 335.529 291.517C335.798 291.972 335.933 292.494 335.933 293.082C335.933 293.72 335.798 294.265 335.529 294.716C335.26 295.167 334.866 295.511 334.347 295.748C333.827 295.98 333.191 296.097 332.439 296.097ZM338.674 293.766V300H337.409V292.604H338.64L338.674 293.766ZM340.984 292.562L340.978 293.738C340.873 293.715 340.772 293.702 340.677 293.697C340.586 293.688 340.481 293.684 340.362 293.684C340.071 293.684 339.813 293.729 339.59 293.82C339.367 293.911 339.177 294.039 339.022 294.203C338.868 294.367 338.744 294.563 338.653 294.791C338.567 295.014 338.51 295.26 338.482 295.529L338.127 295.734C338.127 295.288 338.17 294.868 338.257 294.477C338.348 294.085 338.487 293.738 338.674 293.438C338.861 293.132 339.098 292.895 339.385 292.727C339.676 292.553 340.023 292.467 340.424 292.467C340.515 292.467 340.62 292.478 340.738 292.501C340.857 292.519 340.939 292.54 340.984 292.562ZM341.682 296.384V296.227C341.682 295.693 341.759 295.199 341.914 294.743C342.069 294.283 342.292 293.884 342.584 293.547C342.876 293.205 343.229 292.941 343.644 292.754C344.058 292.562 344.523 292.467 345.038 292.467C345.558 292.467 346.025 292.562 346.439 292.754C346.859 292.941 347.214 293.205 347.506 293.547C347.802 293.884 348.028 294.283 348.183 294.743C348.338 295.199 348.415 295.693 348.415 296.227V296.384C348.415 296.917 348.338 297.411 348.183 297.867C348.028 298.323 347.802 298.722 347.506 299.063C347.214 299.401 346.861 299.665 346.446 299.856C346.036 300.043 345.571 300.137 345.052 300.137C344.532 300.137 344.065 300.043 343.65 299.856C343.236 299.665 342.88 299.401 342.584 299.063C342.292 298.722 342.069 298.323 341.914 297.867C341.759 297.411 341.682 296.917 341.682 296.384ZM342.946 296.227V296.384C342.946 296.753 342.99 297.102 343.076 297.43C343.163 297.753 343.293 298.04 343.466 298.291C343.644 298.542 343.865 298.74 344.129 298.886C344.393 299.027 344.701 299.098 345.052 299.098C345.398 299.098 345.701 299.027 345.961 298.886C346.225 298.74 346.444 298.542 346.617 298.291C346.79 298.04 346.92 297.753 347.007 297.43C347.098 297.102 347.144 296.753 347.144 296.384V296.227C347.144 295.862 347.098 295.518 347.007 295.194C346.92 294.866 346.788 294.577 346.61 294.326C346.437 294.071 346.218 293.87 345.954 293.725C345.694 293.579 345.389 293.506 345.038 293.506C344.692 293.506 344.386 293.579 344.122 293.725C343.862 293.87 343.644 294.071 343.466 294.326C343.293 294.577 343.163 294.866 343.076 295.194C342.99 295.518 342.946 295.862 342.946 296.227ZM350.035 292.604H351.307V300.882C351.307 301.333 351.234 301.716 351.088 302.03C350.947 302.345 350.732 302.582 350.445 302.741C350.163 302.905 349.805 302.987 349.372 302.987C349.258 302.987 349.126 302.976 348.976 302.953C348.821 302.93 348.691 302.903 348.586 302.871L348.593 301.853C348.679 301.871 348.777 301.884 348.887 301.894C348.996 301.907 349.092 301.914 349.174 301.914C349.361 301.914 349.518 301.88 349.646 301.812C349.773 301.743 349.869 301.634 349.933 301.483C350.001 301.333 350.035 301.132 350.035 300.882V292.604ZM349.905 290.642C349.905 290.437 349.969 290.263 350.097 290.122C350.224 289.981 350.409 289.91 350.65 289.91C350.896 289.91 351.083 289.981 351.211 290.122C351.339 290.263 351.402 290.437 351.402 290.642C351.402 290.838 351.339 291.006 351.211 291.147C351.083 291.284 350.896 291.353 350.65 291.353C350.409 291.353 350.224 291.284 350.097 291.147C349.969 291.006 349.905 290.838 349.905 290.642ZM356.42 300.137C355.905 300.137 355.438 300.05 355.019 299.877C354.604 299.699 354.246 299.451 353.945 299.132C353.649 298.813 353.421 298.435 353.262 297.997C353.102 297.56 353.022 297.081 353.022 296.562V296.274C353.022 295.673 353.111 295.137 353.289 294.668C353.467 294.194 353.708 293.793 354.014 293.465C354.319 293.137 354.665 292.888 355.053 292.72C355.44 292.551 355.841 292.467 356.256 292.467C356.785 292.467 357.24 292.558 357.623 292.74C358.01 292.923 358.327 293.178 358.573 293.506C358.819 293.829 359.002 294.212 359.12 294.654C359.239 295.092 359.298 295.57 359.298 296.09V296.657H353.774V295.625H358.033V295.529C358.015 295.201 357.947 294.882 357.828 294.572C357.714 294.262 357.532 294.007 357.281 293.807C357.031 293.606 356.689 293.506 356.256 293.506C355.969 293.506 355.704 293.567 355.463 293.69C355.221 293.809 355.014 293.987 354.841 294.224C354.668 294.461 354.533 294.75 354.438 295.092C354.342 295.434 354.294 295.828 354.294 296.274V296.562C354.294 296.912 354.342 297.243 354.438 297.553C354.538 297.858 354.681 298.127 354.868 298.359C355.06 298.592 355.29 298.774 355.559 298.906C355.832 299.038 356.142 299.104 356.488 299.104C356.935 299.104 357.313 299.013 357.623 298.831C357.933 298.649 358.204 298.405 358.437 298.1L359.202 298.708C359.043 298.95 358.84 299.18 358.594 299.398C358.348 299.617 358.045 299.795 357.685 299.932C357.329 300.068 356.908 300.137 356.42 300.137ZM363.734 299.098C364.035 299.098 364.313 299.036 364.568 298.913C364.824 298.79 365.033 298.621 365.197 298.407C365.361 298.188 365.455 297.94 365.478 297.662H366.681C366.658 298.1 366.51 298.507 366.236 298.886C365.967 299.259 365.614 299.562 365.177 299.795C364.739 300.023 364.258 300.137 363.734 300.137C363.178 300.137 362.693 300.039 362.278 299.843C361.868 299.647 361.526 299.378 361.253 299.036C360.984 298.694 360.781 298.302 360.645 297.86C360.512 297.414 360.446 296.942 360.446 296.445V296.158C360.446 295.661 360.512 295.192 360.645 294.75C360.781 294.303 360.984 293.909 361.253 293.567C361.526 293.226 361.868 292.957 362.278 292.761C362.693 292.565 363.178 292.467 363.734 292.467C364.313 292.467 364.819 292.585 365.252 292.822C365.685 293.055 366.024 293.374 366.271 293.779C366.521 294.18 366.658 294.636 366.681 295.146H365.478C365.455 294.841 365.368 294.565 365.218 294.319C365.072 294.073 364.871 293.877 364.616 293.731C364.366 293.581 364.072 293.506 363.734 293.506C363.347 293.506 363.021 293.583 362.757 293.738C362.497 293.889 362.29 294.094 362.135 294.354C361.984 294.609 361.875 294.894 361.807 295.208C361.743 295.518 361.711 295.835 361.711 296.158V296.445C361.711 296.769 361.743 297.088 361.807 297.402C361.87 297.717 361.978 298.002 362.128 298.257C362.283 298.512 362.49 298.717 362.75 298.872C363.014 299.022 363.342 299.098 363.734 299.098ZM371.199 292.604V293.574H367.2V292.604H371.199ZM368.554 290.806H369.818V298.168C369.818 298.419 369.857 298.608 369.935 298.735C370.012 298.863 370.112 298.947 370.235 298.988C370.358 299.029 370.491 299.05 370.632 299.05C370.737 299.05 370.846 299.041 370.96 299.022C371.078 299 371.167 298.981 371.227 298.968L371.233 300C371.133 300.032 371.001 300.062 370.837 300.089C370.677 300.121 370.484 300.137 370.256 300.137C369.946 300.137 369.661 300.075 369.401 299.952C369.142 299.829 368.934 299.624 368.779 299.337C368.629 299.045 368.554 298.653 368.554 298.161V290.806Z" fill="black"/>
<path d="M248.5 148.75V180.25C247.542 181.625 245.729 183.167 243.062 184.875C240.438 186.583 236.979 188.083 232.688 189.375C228.438 190.625 223.354 191.25 217.438 191.25C212.271 191.25 207.542 190.292 203.25 188.375C198.958 186.458 195.25 183.729 192.125 180.188C189 176.604 186.583 172.375 184.875 167.5C183.208 162.583 182.375 157.167 182.375 151.25V136.375C182.375 130.625 183.188 125.396 184.812 120.688C186.479 115.979 188.812 111.917 191.812 108.5C194.854 105.042 198.458 102.396 202.625 100.562C206.792 98.6875 211.375 97.75 216.375 97.75C222.958 97.75 228.521 98.8958 233.062 101.188C237.604 103.479 241.146 106.583 243.688 110.5C246.271 114.375 247.833 118.75 248.375 123.625H245C244.375 119.667 243.021 115.979 240.938 112.562C238.854 109.146 235.812 106.396 231.812 104.312C227.854 102.188 222.708 101.125 216.375 101.125C211.75 101.125 207.542 102 203.75 103.75C200 105.458 196.771 107.875 194.062 111C191.396 114.125 189.333 117.833 187.875 122.125C186.458 126.417 185.75 131.125 185.75 136.25V151.25C185.75 156.625 186.479 161.542 187.938 166C189.438 170.458 191.583 174.333 194.375 177.625C197.167 180.875 200.5 183.396 204.375 185.188C208.292 186.979 212.646 187.875 217.438 187.875C222.396 187.875 226.771 187.375 230.562 186.375C234.396 185.333 237.542 184.104 240 182.688C242.5 181.229 244.208 179.896 245.125 178.688V152.188H217.312V148.75H248.5ZM274.688 122.375V190H271.312V122.375H274.688ZM269.562 101.25C269.562 100.292 269.896 99.4792 270.562 98.8125C271.229 98.1042 272.042 97.75 273 97.75C273.958 97.75 274.771 98.1042 275.438 98.8125C276.146 99.4792 276.5 100.292 276.5 101.25C276.5 102.208 276.146 103.021 275.438 103.688C274.771 104.354 273.958 104.688 273 104.688C272.042 104.688 271.229 104.354 270.562 103.688C269.896 103.021 269.562 102.208 269.562 101.25ZM319.812 122.375V125.812H288.5V122.375H319.812ZM301 104.125H304.438V173.812C304.438 177.771 304.896 180.771 305.812 182.812C306.771 184.812 308.021 186.167 309.562 186.875C311.146 187.542 312.833 187.875 314.625 187.875C315.917 187.875 317.062 187.833 318.062 187.75C319.062 187.625 320.146 187.479 321.312 187.312L321.875 190.5C320.958 190.792 319.771 190.979 318.312 191.062C316.854 191.188 315.688 191.25 314.812 191.25C311.938 191.25 309.458 190.75 307.375 189.75C305.333 188.708 303.75 186.917 302.625 184.375C301.542 181.833 301 178.312 301 173.812V104.125ZM372.188 122.375V190H368.812V122.375H372.188ZM367.062 101.25C367.062 100.292 367.396 99.4792 368.062 98.8125C368.729 98.1042 369.542 97.75 370.5 97.75C371.458 97.75 372.271 98.1042 372.938 98.8125C373.646 99.4792 374 100.292 374 101.25C374 102.208 373.646 103.021 372.938 103.688C372.271 104.354 371.458 104.688 370.5 104.688C369.542 104.688 368.729 104.354 368.062 103.688C367.396 103.021 367.062 102.208 367.062 101.25ZM417.312 122.375V125.812H386V122.375H417.312ZM398.5 104.125H401.938V173.812C401.938 177.771 402.396 180.771 403.312 182.812C404.271 184.812 405.521 186.167 407.062 186.875C408.646 187.542 410.333 187.875 412.125 187.875C413.417 187.875 414.562 187.833 415.562 187.75C416.562 187.625 417.646 187.479 418.812 187.312L419.375 190.5C418.458 190.792 417.271 190.979 415.812 191.062C414.354 191.188 413.188 191.25 412.312 191.25C409.438 191.25 406.958 190.75 404.875 189.75C402.833 188.708 401.25 186.917 400.125 184.375C399.042 181.833 398.5 178.312 398.5 173.812V104.125Z" fill="#A9A9A9"/>
</g>
<defs>
<clipPath id="clip0_3_32">
<rect width="595" height="842" fill="white"/>
</clipPath>
</defs>
</svg>
